<?xml version="1.0" encoding="UTF-8" standalone="no"?>
<svg
   xmlns:dc="http://purl.org/dc/elements/1.1/"
   xmlns:cc="http://creativecommons.org/ns#"
   xmlns:rdf="http://www.w3.org/1999/02/22-rdf-syntax-ns#"
   xmlns:svg="http://www.w3.org/2000/svg"
   xmlns="http://www.w3.org/2000/svg"
   id="svg8"
   version="1.1"
   viewBox="0 0 207.16805 207.16805"
   height="207.16805mm"
   width="207.16805mm">
  <defs
     id="defs2">
    <clipPath
       clipPathUnits="userSpaceOnUse"
       id="clipPath968">
      <path
         d="M 0,841.89 H 595.276 V 0 H 0 Z"
         id="path966" />
    </clipPath>
    <clipPath
       clipPathUnits="userSpaceOnUse"
       id="clipPath980">
      <path
         d="M 0,841.89 H 595.276 V 0 H 0 Z"
         id="path978" />
    </clipPath>
    <clipPath
       clipPathUnits="userSpaceOnUse"
       id="clipPath1020">
      <path
         d="M 0,841.89 H 595.276 V 0 H 0 Z"
         id="path1018" />
    </clipPath>
  </defs>
  <metadata
     id="metadata5">
    <rdf:RDF>
      <cc:Work
         rdf:about="">
        <dc:format>image/svg+xml</dc:format>
        <dc:type
           rdf:resource="http://purl.org/dc/dcmitype/StillImage" />
        <dc:title></dc:title>
      </cc:Work>
    </rdf:RDF>
  </metadata>
  <g
     transform="translate(-2.2490343,-45.249357)"
     style="display:inline;opacity:1"
     id="layer1">
    <path
       id="path960"
       style="fill:none;fill-opacity:1;fill-rule:nonzero;stroke:none;stroke-width:0.35277778"
       d="M 0.83344143,297.33338 H 210.83323 V 0.33330321 H 0.83344143 Z" />
    <g
       style="fill:#ffffff"
       transform="matrix(0.35277777,0,0,-0.35277777,0.83309019,297.33338)"
       id="g962">
      <g
         style="fill:#ffffff"
         clip-path="url(#clipPath968)"
         id="g964">
        <g
           style="fill:#ffffff"
           transform="translate(591.2617,420.9449)"
           id="g970">
          <path
             id="path972"
             style="fill:#ffffff;fill-opacity:1;fill-rule:nonzero;stroke:none"
             d="m 0,0 c 0,-162.165 -131.46,-293.624 -293.624,-293.624 -162.164,0 -293.624,131.459 -293.624,293.624 0,162.164 131.46,293.624 293.624,293.624 C -131.46,293.624 0,162.164 0,0" />
        </g>
      </g>
    </g>
  </g>
  <g
     transform="translate(-2.2490343,-45.249357)"
     style="display:inline"
     id="layer3">
    <g
       transform="matrix(0.3527305,-0.00577502,-0.00577502,-0.3527305,3.2885044,299.07617)"
       id="g974"
       style="display:inline">
      <g
         clip-path="url(#clipPath980)"
         id="g976">
        <g
           transform="translate(207.6294,548.1862)"
           id="g982">
          <path
             id="path984"
             style="fill:#ca9384;fill-opacity:1;fill-rule:nonzero;stroke:none"
             d="m 0,0 c 0,0 -27.922,-14.768 -26.431,-58.174 1.491,-43.406 -8.257,-31.556 -10.372,-52.748 -2.115,-21.192 -1.265,-45.938 -3.112,-51.281 -1.847,-5.343 -3.673,-70.388 -0.682,-86.531 2.992,-16.142 7.144,-30.621 15.55,-38.861 8.406,-8.24 27.316,-26.679 36.016,-31.66 8.7,-4.981 29.903,-31.058 70.819,-28.028 40.916,3.031 57.254,0.343 66.697,9.197 9.443,8.853 38.526,25.286 50.153,41.524 11.626,16.239 17.32,27.807 20.177,51.055 2.856,23.248 5.575,62.331 5.702,70.458 0.127,8.127 3.406,54.54 -0.187,64.57 -3.594,10.03 -6.305,29.837 -6.511,59.479 -0.206,29.641 -9.717,46.372 -53.738,39.173 C 120.059,-19.025 141.267,2.011 90.293,-3.802 39.32,-9.615 25.055,15.482 0,0" />
        </g>
        <g
           transform="translate(168.4023,389.8038)"
           id="g986">
          <path
             id="path988"
             style="fill:#ca9384;fill-opacity:1;fill-rule:nonzero;stroke:none"
             d="m 0,0 c -5.114,-3.363 -14.579,30.225 -15.507,37.504 -0.928,7.278 -5.653,10.77 -10.004,7.372 -4.351,-3.399 -1.281,-43.033 9.476,-63.032 C -6.49,-35.901 -2.919,-47.565 -2.846,-43.19 -2.837,-42.679 0,0 0,0" />
        </g>
        <g
           transform="translate(453.1953,431.3322)"
           id="g990">
          <path
             id="path992"
             style="fill:#302720;fill-opacity:1;fill-rule:nonzero;stroke:none"
             d="m 0,0 c 0,0 -0.339,16.826 4.121,36.691 1.057,4.707 0.695,29.245 2.43,46.383 2.144,21.194 -7.277,36.47 -9.42,38.869 -4.224,4.729 13.514,8.587 10.171,11.315 -3.343,2.729 -11.133,16.676 -15.538,26.678 -4.405,10.002 -29.175,33.52 -39.961,28.275 -10.785,-5.244 -27.709,14.481 -35.345,23.967 -7.637,9.485 -6.714,6.267 -19.709,6.227 -12.995,-0.041 -8.474,22.046 -73.227,15.354 -64.752,-6.692 -82.299,-51.564 -89.545,-53.438 -7.246,-1.873 -31.869,-29.931 -32.093,-35.218 -0.225,-5.288 -13.585,-18.337 -13.585,-18.337 5.272,-11.597 -4.297,-16.799 0.683,-19.877 4.979,-3.078 10.697,-27.657 6.122,-36.343 -4.575,-8.686 -0.17,-18.688 -1.108,-26.843 -0.938,-8.155 0.46,-37.044 2.831,-40.792 6.358,-10.049 11.038,-43.717 18.306,-45.093 3.701,-0.701 -2.915,54.934 9.166,66.428 9.204,8.757 -6.814,92.333 46.611,97.733 12.351,1.248 27.869,-7.653 49.791,-9.494 16.11,-1.352 26.015,1.708 46.527,1.322 8.717,-0.164 17.421,-7.249 29.664,-9.945 10.234,-2.254 30.693,3.175 41.374,2.813 12.698,-0.431 15.23,-2.279 22.948,-6.909 8.431,-5.058 10.517,-21.576 11.643,-54.4 1.13,-32.962 6.65,-33.265 7.298,-47.168 1.327,-28.445 -2.595,-48.359 -1.035,-51.848 1.385,-3.096 4.647,17.856 13.94,34.366 C -2.774,-11.885 -3.629,-3.687 0,0" />
        </g>
        <g
           transform="translate(220.0815,233.0431)"
           id="g994">
          <path
             id="path996"
             style="fill:#302720;fill-opacity:1;fill-rule:nonzero;stroke:none"
             d="m 0,0 c 0,0 8.156,10.84 17.626,7.104 9.47,-3.736 13.23,-18.634 28.226,-17.712 14.996,0.92 17.123,9.929 29.377,7.913 12.253,-2.016 12.979,-11.332 25.457,-8.06 12.478,3.272 27.419,17.584 33.308,11.699 5.887,-5.885 5.344,-25.54 3.089,-30.827 -2.254,-5.286 -20.636,-14.041 -24.946,-18.656 -4.308,-4.615 -12.366,-0.425 -18.688,-2.673 -6.324,-2.248 -13.411,3.113 -17.344,-0.637 -3.933,-3.749 -10.42,-4.075 -16.212,-0.973 -5.793,3.101 -8.003,3.025 -15.878,4.38 -7.875,1.353 -15.933,-0.548 -20.954,3.747 C 18.04,-40.4 14.166,-34.035 9.956,-29.712 5.746,-25.389 -6.212,-8.336 -3.848,-6.224 -1.483,-4.112 0,0 0,0" />
        </g>
        <g
           transform="translate(432.3154,377.6818)"
           id="g998">
          <path
             id="path1000"
             style="fill:#ca9384;fill-opacity:1;fill-rule:nonzero;stroke:none"
             d="m 0,0 -2.965,-46.048 c 2.3,-0.714 6.107,4.252 7.091,7.942 0.983,3.688 10.419,19.04 13.802,24.842 3.383,5.802 7.811,23.012 8.525,25.879 0.714,2.868 3.247,11.89 4.335,15.686 1.088,3.796 -1.463,18.935 -3.589,21.705 -2.126,2.77 -6.769,7.89 -8.841,-2.74 C 16.287,36.635 10.845,29.543 9.027,23.326 7.21,17.109 0,0 0,0" />
        </g>
        <g
           transform="translate(273.8223,327.7609)"
           id="g1002">
          <path
             id="path1004"
             style="fill:#302720;fill-opacity:1;fill-rule:nonzero;stroke:none"
             d="m 0,0 c 0,0 -9.046,-4.644 -13.103,-4.783 -4.057,-0.139 -23.361,-5.676 -28.071,-10.441 -4.71,-4.764 -5.001,-19.937 -9.534,-21.988 -4.532,-2.052 19.007,6.339 22.448,8.623 3.442,2.284 16.059,5.426 22.289,5.368 6.229,-0.056 17.69,-2.64 20.04,-0.123 2.35,2.518 6.697,9.978 9.439,8.989 2.741,-0.989 6.806,-8.972 8.494,-10.81 1.687,-1.837 25.253,-2.11 31.519,-3.249 6.267,-1.139 19.834,-9.878 23.303,-16.257 3.468,-6.379 8.811,-12.152 9.726,-7.247 0.914,4.905 1.234,27.118 -2.319,28.079 -3.553,0.961 -20.85,15.8 -27.332,15.307 C 60.419,-9.025 52.66,-3.877 50.684,-1.508 48.707,0.86 40.238,-4.846 34.299,-5.32 28.358,-5.795 22.473,-7.893 15.853,-4.329 9.232,-0.767 6.994,1.323 0,0" />
        </g>
        <g
           transform="translate(277.5635,266.1554)"
           id="g1006">
          <path
             id="path1008"
             style="fill:#302720;fill-opacity:1;fill-rule:nonzero;stroke:none"
             d="m 0,0 c 0,0 27.202,-3.668 35.969,1.236 8.766,4.905 0.315,-9.195 -2.081,-10.36 -2.398,-1.166 -16.274,-7.058 -16.228,-8.41 0.047,-1.352 -6.398,4.276 -12.43,7.154 -5.858,2.796 -9.243,5.997 -10.493,7.898 C -9.048,3.277 0,0 0,0" />
        </g>
        <g
           transform="translate(441.9297,424.754)"
           id="g1010">
          <path
             id="path1012"
             style="fill:#383459;fill-opacity:1;fill-rule:nonzero;stroke:none"
             d="M 0.44901103,-0.4388668 C -1.8579886,-16.941871 -5.7099886,-42.405871 -14.088988,-46.567871 c -8.378,-4.162 -14.38,-11.692 -65,-6.393 -43.880992,4.592 -41.385992,50.9540043 -41.385992,50.9540043 0,0 -2.064,15.3539957 10.968,19.7269957 13.032992,4.373 38.121992,8.616 72.275992,5.063 34.1539994,-3.553 39.9879994,-6.72 37.67999903,-23.2219958 M -161.06998,-0.04586679 c -2.261,-12.99200421 -6.645,-33.15700421 -15.423,-38.87700421 -8.778,-5.721 -17.236,-12.086 -38.576,-12.18 -21.34,-0.095 -42.762,2.429 -53.523,9.444 -10.761,7.017 -12.943,40.4850043 -11.709,48.5770043 1.234,8.0919957 -1.572,14.4859957 20.197,17.9459957 21.77,3.46 79.075,1.58 90.862,-6.966 0,0 10.434,-4.953 8.172,-17.94399579 M 15.114012,19.876129 c -0.815,0.481 -43.158,7.299 -50.649,7.712 -5.484,0.302 -55.206,4.74 -83.996992,-5.166 -16.332,-5.619 -44.492,1.753 -44.492,1.753 0,0 -37.356,9.141 -67.678,8.031 -30.323,-1.111 -63.925,-6.632 -63.925,-6.632 0,0 -1.73,-8.834 0.494,-10.325 2.224,-1.491 5.308,-0.979 6.578,-12.3079957 1.271,-11.329 6.049,-44.8360043 20.962,-50.9640043 14.912,-6.128 35.909,-6.852 54.678,-7.883 14.536,-0.798 34.675,5.159 41.688,14.098 7.749,9.876 19.166,40.6120043 19.166,40.6120043 0,0 2.375,6.892 11.044,6.136 7.463,-0.65 10.745,-2.126 12.116,-10.299 1.639,-9.7620043 13.653,-35.2560043 17.19,-37.9570043 3.962,-3.026 7.418,-10.454 28.445992,-13.59 21.028,-3.136 46.818,-3.258 58.115,0.13 11.297,3.387 18.6229994,7.583 23.4599994,18.284 4.836,10.7 10.812,38.61000421 10.559,41.3590043 -0.253,2.748 2.0340006,4.116 3.5380006,4.075 1.504,-0.041 4.34,11.9719957 2.707,12.9339957" />
        </g>
      </g>
    </g>
  </g>
  <g
     transform="translate(-2.2490343,-45.249357)"
     style="display:none"
     id="layer2">
    <g
       transform="matrix(0.35277777,0,0,-0.35277777,0.83344144,297.33338)"
       id="g1014">
      <g
         clip-path="url(#clipPath1020)"
         id="g1016">
        <g
           transform="translate(453.04,433.6281)"
           id="g1022">
          <path
             id="path1024"
             style="fill:#000000;fill-opacity:1;fill-rule:nonzero;stroke:none"
             d="m 0,0 c 0,0 -0.604,16.818 3.544,36.751 0.982,4.723 0.235,29.252 1.699,46.416 1.811,21.224 -7.849,36.351 -10.03,38.716 -4.298,4.661 13.377,8.799 9.991,11.473 -3.385,2.676 -11.393,16.499 -15.955,26.431 -4.562,9.931 -29.699,33.056 -40.4,27.643 -10.703,-5.413 -27.934,14.043 -35.718,23.407 -7.785,9.364 -6.812,6.161 -19.805,5.916 -12.992,-0.244 -8.819,21.911 -73.459,14.201 -64.639,-7.71 -81.478,-52.852 -88.693,-54.84 -7.216,-1.987 -31.395,-30.428 -31.536,-35.718 -0.141,-5.291 -13.295,-18.549 -13.295,-18.549 5.454,-11.513 -4.031,-16.865 0.996,-19.864 5.027,-3 11.131,-27.484 6.693,-36.242 -4.438,-8.757 0.124,-18.688 -0.686,-26.857 -0.81,-8.169 1.043,-37.032 3.473,-40.743 6.514,-9.947 11.724,-43.537 19.013,-44.799 3.712,-0.643 -3.778,54.881 8.12,66.564 9.065,8.901 -8.266,92.214 45.068,98.453 12.329,1.443 27.985,-7.213 49.933,-8.708 16.13,-1.099 25.985,2.117 46.501,2.053 8.719,-0.027 17.533,-6.975 29.817,-9.477 10.268,-2.093 30.639,3.657 41.325,3.463 12.703,-0.231 15.263,-2.039 23.053,-6.547 8.509,-4.924 10.856,-21.407 12.497,-54.209 1.65,-32.941 7.173,-33.157 8.04,-47.048 1.774,-28.421 -1.834,-48.394 -0.219,-51.859 1.433,-3.073 4.364,17.928 13.397,34.581 C -2.587,-11.927 -3.57,-3.744 0,0" />
        </g>
        <g
           transform="translate(223.0742,231.6964)"
           id="g1026">
          <path
             id="path1028"
             style="fill:#000000;fill-opacity:1;fill-rule:nonzero;stroke:none"
             d="m 0,0 c 0,0 7.985,10.967 17.512,7.381 9.527,-3.587 13.522,-18.424 28.501,-17.267 14.979,1.157 16.965,10.198 29.248,8.375 12.284,-1.823 13.157,-11.127 25.582,-7.659 12.425,3.468 27.139,18.014 33.119,12.222 5.98,-5.792 5.746,-25.453 3.574,-30.775 -2.172,-5.321 -20.413,-14.363 -24.649,-19.046 -4.236,-4.683 -12.359,-0.62 -18.645,-2.966 -6.286,-2.348 -13.458,2.901 -17.331,-0.91 -3.873,-3.811 -10.354,-4.238 -16.195,-1.228 -5.841,3.01 -8.049,2.898 -15.945,4.129 -7.895,1.229 -15.922,-0.798 -21.01,3.417 -5.088,4.216 -9.062,10.519 -13.339,14.775 C 6.145,-25.296 -6.08,-8.433 -3.75,-6.284 -1.418,-4.135 0,0 0,0" />
        </g>
        <g
           transform="translate(275.3184,327.2472)"
           id="g1030">
          <path
             id="path1032"
             style="fill:#000000;fill-opacity:1;fill-rule:nonzero;stroke:none"
             d="m 0,0 c 0,0 -8.972,-4.784 -13.026,-4.987 -4.054,-0.203 -23.269,-6.043 -27.904,-10.882 -4.634,-4.838 -4.686,-20.014 -9.186,-22.136 -4.5,-2.122 18.904,6.638 22.309,8.976 3.405,2.338 15.972,5.677 22.202,5.718 6.229,0.041 17.729,-2.363 20.04,0.192 2.31,2.555 6.539,10.082 9.295,9.136 2.757,-0.946 6.948,-8.864 8.664,-10.674 1.716,-1.811 25.283,-1.714 31.567,-2.753 6.283,-1.04 19.986,-9.566 23.555,-15.889 3.568,-6.324 9.001,-12.013 9.838,-7.094 0.837,4.919 0.808,27.135 -2.759,28.039 -3.569,0.906 -21.097,15.471 -27.57,14.875 C 60.553,-8.073 52.715,-3.048 50.701,-0.71 48.688,1.627 40.31,-4.211 34.378,-4.779 28.445,-5.348 22.595,-7.537 15.919,-4.079 9.243,-0.62 6.973,1.434 0,0" />
        </g>
        <g
           transform="translate(280.0278,265.7091)"
           id="g1034">
          <path
             id="path1036"
             style="fill:#000000;fill-opacity:1;fill-rule:nonzero;stroke:none"
             d="m 0,0 c 0,0 27.256,-3.24 35.945,1.802 8.688,5.041 0.461,-9.19 -1.918,-10.393 -2.378,-1.202 -16.161,-7.311 -16.093,-8.663 0.068,-1.351 -6.465,4.175 -12.541,6.958 -5.901,2.702 -9.336,5.85 -10.616,7.732 C -9.098,3.134 0,0 0,0" />
        </g>
        <g
           transform="translate(441.8799,426.8732)"
           id="g1038">
          <path
             id="path1040"
             style="fill:#000000;fill-opacity:1;fill-rule:nonzero;stroke:none"
             d="m 0,0 c -2.047,-16.537 -5.499,-42.059 -13.811,-46.352 -8.311,-4.294 -14.195,-11.918 -64.892,-7.416 -43.947,3.903 -42.182,50.298 -42.182,50.298 0,0 -2.305,15.32 10.656,19.897 12.963,4.578 37.982,9.216 72.188,6.2 C -3.836,19.611 2.047,16.537 0,0 m -161.505,-2.148 c -2.057,-13.025 -6.123,-33.256 -14.81,-39.115 -8.687,-5.858 -17.044,-12.355 -38.38,-12.785 -21.336,-0.43 -42.795,1.757 -53.665,8.602 -10.87,6.845 -13.578,40.276 -12.472,48.386 1.107,8.111 -1.799,14.46 19.913,18.262 21.712,3.801 79.04,2.823 90.96,-5.536 0,0 10.51,-4.789 8.454,-17.814 M 14.343,20.544 c -0.822,0.468 -43.268,6.618 -50.765,6.914 -5.487,0.216 -55.273,3.87 -83.905,-6.487 -16.241,-5.875 -44.514,1.052 -44.514,1.052 0,0 -37.494,8.554 -67.796,6.966 -30.301,-1.587 -63.812,-7.636 -63.812,-7.636 0,0 -1.592,-8.86 0.656,-10.316 2.248,-1.456 5.322,-0.895 6.771,-12.203 1.449,-11.308 6.754,-44.735 21.761,-50.628 15.007,-5.894 36.012,-6.286 54.795,-7.021 14.547,-0.571 34.59,5.703 41.461,14.751 7.593,9.997 18.525,40.908 18.525,40.908 0,0 2.266,6.928 10.947,6.309 7.471,-0.533 10.776,-1.956 12.276,-10.107 1.792,-9.734 14.205,-35.036 17.784,-37.682 4.01,-2.964 7.582,-10.336 28.658,-13.14 21.075,-2.805 46.862,-2.522 58.105,1.044 11.242,3.564 18.502,7.875 23.169,18.65 4.668,10.775 10.203,38.775 9.907,41.52 -0.296,2.744 1.97,4.148 3.474,4.131 1.505,-0.018 4.151,12.038 2.503,12.975" />
        </g>
      </g>
    </g>
  </g>
</svg>
